<?xml version="1.0" standalone="no"?>
<!DOCTYPE svg PUBLIC "-//W3C//DTD SVG 20010904//EN"
 "http://www.w3.org/TR/2001/REC-SVG-20010904/DTD/svg10.dtd">
<svg version="1.0" xmlns="http://www.w3.org/2000/svg"
 width="325.000000pt" height="325.000000pt" viewBox="0 0 325.000000 325.000000"
 preserveAspectRatio="xMidYMid meet">
<metadata>
Created by potrace 1.16, written by Peter Selinger 2001-2019
</metadata>
<g transform="translate(0.000000,325.000000) scale(0.100000,-0.100000)"
fill="#000000" stroke="none">
<path d="M1560 3229 c-228 -21 -423 -167 -549 -409 -22 -41 -84 -174 -139
-295 -82 -181 -339 -744 -638 -1396 -73 -159 -95 -240 -101 -380 -18 -382 198
-665 560 -734 107 -20 169 -19 285 6 166 36 304 111 428 235 56 56 164 196
164 212 0 5 -52 92 -115 193 -63 101 -117 189 -120 194 -2 6 -10 2 -17 -9
-134 -195 -195 -266 -279 -322 -119 -79 -227 -96 -324 -50 -94 43 -138 118
-138 236 -1 159 113 352 259 440 56 33 62 35 154 35 84 0 102 -3 152 -28 114
-56 203 -170 417 -537 127 -216 176 -286 265 -374 154 -152 369 -246 566 -246
78 0 213 29 299 64 140 57 285 194 351 331 59 124 74 200 67 357 -8 205 12
153 -400 1053 -113 248 -259 567 -324 711 -66 143 -141 297 -168 341 -156 263
-392 396 -655 372z m164 -510 c49 -33 108 -119 165 -242 27 -56 77 -160 111
-232 34 -71 82 -175 107 -230 25 -55 72 -154 104 -221 33 -66 59 -125 59 -132
0 -8 -19 -12 -56 -12 -152 0 -338 -89 -491 -234 l-66 -62 124 -187 124 -188
25 33 c45 61 134 138 190 166 46 23 68 27 135 27 109 0 170 -30 260 -127 107
-116 163 -255 153 -383 -6 -72 -32 -126 -85 -177 -50 -49 -110 -69 -203 -69
-65 0 -84 5 -145 35 -75 37 -149 102 -213 187 -22 30 -108 164 -192 298 -83
135 -176 277 -206 317 -160 212 -375 333 -592 334 l-72 0 24 48 c21 41 213
456 283 612 76 167 175 360 204 394 66 78 176 98 253 45z"/>
</g>
</svg>
